<svg width="9" height="10" viewBox="0 0 9 10" fill="none" xmlns="http://www.w3.org/2000/svg">
<path d="M8.31377 5.7352C9.14846 5.28623 9.30083 4.72013 8.32702 4.15404L1.51039 0.497184C0.682326 0.0351972 0 0.412595 0 1.34307V8.55267C0 9.73692 0.629329 9.85404 1.46402 9.41157L2.24571 8.98212C2.37158 8.89753 2.66968 8.65027 2.59019 8.31192C2.51069 7.99959 2.23909 7.90198 1.92111 7.98657C1.45739 8.23383 1.15929 7.98657 1.15929 7.47253V2.33212C1.15929 1.81808 1.53689 1.60335 1.99398 1.86362L6.69739 4.50541C7.15448 4.75917 7.15448 5.17561 6.69077 5.42287L3.7826 6.90643V5.15609C3.7826 4.88931 3.55737 4.66808 3.28576 4.66808C3.01416 4.66808 2.78892 4.88931 2.78892 5.15609V7.6352C2.78892 7.90198 3.02741 8.09719 3.28576 8.18828C3.39175 8.22733 3.60374 8.23383 3.7561 8.16226L8.31377 5.7352Z" fill="#00ACCA"/>
<path d="M3.31228 4.35572C3.60132 4.35572 3.83562 4.12558 3.83562 3.84168C3.83562 3.55778 3.60132 3.32764 3.31228 3.32764C3.02325 3.32764 2.78894 3.55778 2.78894 3.84168C2.78894 4.12558 3.02325 4.35572 3.31228 4.35572Z" fill="#00ACCA"/>
</svg>
