<svg width="9" height="10" viewBox="0 0 9 10" fill="none" xmlns="http://www.w3.org/2000/svg">
<path fill-rule="evenodd" clip-rule="evenodd" d="M4.5 8.35C6.35015 8.35 7.85 6.85015 7.85 5C7.85 3.14985 6.35015 1.65 4.5 1.65C2.64985 1.65 1.15 3.14985 1.15 5C1.15 6.85015 2.64985 8.35 4.5 8.35ZM4.5 9.5C6.98528 9.5 9 7.48528 9 5C9 2.51472 6.98528 0.5 4.5 0.5C2.01472 0.5 0 2.51472 0 5C0 7.48528 2.01472 9.5 4.5 9.5Z" fill="#A0A0A0"/>
<rect x="4" y="4.32812" width="1" height="3.2" rx="0.5" fill="#A0A0A0"/>
<rect x="4" y="2.71875" width="1" height="1" rx="0.5" fill="#A0A0A0"/>
</svg>
